<?xml version="1.0" ?>
<!-- Uploaded to: SVG Repo, www.svgrepo.com, Generator: SVG Repo Mixer Tools -->
<svg width="800px" height="800px" viewBox="0 0 24 24" version="1.1" xml:space="preserve" xmlns="http://www.w3.org/2000/svg" xmlns:xlink="http://www.w3.org/1999/xlink">
<style type="text/css">
	.st0{opacity:0.2;fill:none;stroke:#000000;stroke-width:5.000000e-02;stroke-miterlimit:10;}
</style>
<g id="Layer_1"/>
<g id="Layer_2">
<path d="M5,13.4c0,1.7,1.3,3,3,3h1.2l2.3,1.8c0.9,0.7,1.9,1.2,2.9,1.6c0.4,0.1,0.8,0.2,1.2,0.2c0.7,0,1.4-0.2,2-0.6   c0.9-0.6,1.4-1.6,1.4-2.7V7.3c0-1.1-0.5-2-1.4-2.7c-0.9-0.6-2.1-0.8-3.1-0.4c-1.1,0.4-2.1,0.9-2.9,1.6L9.2,7.6H8c-1.7,0-3,1.3-3,3   V13.4z M12.7,7.4c0.7-0.6,1.5-1,2.4-1.3c0.4-0.2,0.9-0.1,1.3,0.2c0.3,0.2,0.5,0.6,0.5,1v9.4c0,0.4-0.2,0.8-0.6,1   c-0.4,0.3-0.9,0.3-1.3,0.2c-0.9-0.3-1.7-0.8-2.4-1.3l-2.2-1.7V9.1L12.7,7.4z M7,10.6c0-0.6,0.4-1,1-1h0.5v4.9H8c-0.6,0-1-0.4-1-1   V10.6z"/>
</g>
</svg>